<svg 
 xmlns="http://www.w3.org/2000/svg"
 xmlns:xlink="http://www.w3.org/1999/xlink"
 width="57px" height="103px">
<path id="link01" fill-rule="evenodd" fill="#000000"
 d="M38.542,102.823 C48.810,98.672 56.054,88.607 56.052,76.851 L56.047,28.851 C56.045,13.387 43.508,0.852 28.044,0.854 C12.580,0.856 0.045,13.393 0.047,28.857 L0.052,76.857 C0.054,86.435 4.863,94.889 12.199,99.937 C11.874,82.706 13.513,88.254 14.350,79.739 C14.155,78.808 14.053,77.844 14.052,76.856 L14.047,28.856 C14.046,21.124 20.313,14.855 28.045,14.854 C35.777,14.853 42.046,21.120 42.047,28.852 L42.052,76.852 C42.053,80.089 40.955,83.069 39.111,85.440 C37.467,95.151 38.053,96.382 38.542,102.823 Z"/>
<path id="link02" fill-rule="evenodd" fill="#000000"
 d="M19.236,0.875 C8.562,4.826 0.954,15.097 0.955,27.145 L0.961,75.145 C0.963,90.609 13.500,103.144 28.964,103.142 C44.428,103.140 56.963,90.603 56.961,75.139 L56.955,27.139 C56.954,17.292 51.870,8.633 44.185,3.642 C43.425,10.857 45.366,17.496 42.834,25.292 C42.914,25.897 42.955,26.514 42.955,27.140 L42.961,75.140 C42.962,82.872 36.694,89.141 28.962,89.142 C21.230,89.143 14.962,82.875 14.961,75.143 L14.955,27.143 C14.955,23.829 16.107,20.783 18.032,18.384 C18.160,13.188 19.200,12.629 19.236,0.875 Z"/>
</svg>
